<svg xmlns="http://www.w3.org/2000/svg" viewBox="0 0 256 256">
  <defs>
    <linearGradient id="g" x1="0%" x2="100%" y1="0%" y2="100%">
      <stop offset="0%" stop-color="#0e6b74"/>
      <stop offset="100%" stop-color="#c96f42"/>
    </linearGradient>
  </defs>
  <rect width="256" height="256" rx="56" fill="#f4efe7"/>
  <rect x="28" y="28" width="200" height="200" rx="42" fill="url(#g)"/>
  <path d="M78 154c0-35 20-56 50-56 19 0 34 8 49 24l-18 18c-9-10-18-15-30-15-16 0-27 11-27 29 0 18 11 29 28 29 12 0 21-5 31-16l18 17c-15 18-31 26-50 26-31 0-51-21-51-56Z" fill="#fff"/>
</svg>
